<?xml version="1.0" encoding="UTF-8"?> <svg xmlns="http://www.w3.org/2000/svg" id="Layer_2" data-name="Layer 2" viewBox="0 0 79.32 69.8"><defs><style> .cls-1 { fill: #fff; stroke-width: 0px; } </style></defs><g id="Layer_2_copy" data-name="Layer 2 copy"><g><path class="cls-1" d="m41.45,69.02l13.81-23.91c.28-.49.28-1.09,0-1.58-.28-.49-.8-.79-1.36-.79h0l-13.03.02h0s-.7,0-.7,0h-.7s0,0,0,0l-13.03-.02h0c-.56,0-1.08.3-1.36.79-.28.49-.28,1.09,0,1.58l13.81,23.91c.27.47.76.75,1.29.78.54-.02,1.02-.31,1.29-.78Z"></path><path class="cls-1" d="m56.77,40.65c.68,0,1.31-.36,1.65-.95l9.34-16.09c.28-.49.28-1.09,0-1.58-.28-.49-.8-.79-1.36-.79H13.69c-1.14,0-1.86,1.25-1.29,2.24l7.38,12.78c.28.49.8.79,1.36.79l22.85.02-1.5,2.69c-.23.4.06.9.52.9h13.75Z"></path><path class="cls-1" d="m27.86,17.98l-1.43-2.38,44.19-.03c.56,0,1.08-.3,1.36-.79l7.13-12.42c.28-.49.28-1.09,0-1.57s-.8-.79-1.36-.79H1.58C1.01,0,.49.3.21.79S-.07,1.88.21,2.36l9.15,15.76c.37.63,1.04,1.02,1.77,1.02h16.07c.59,0,.96-.65.66-1.16Z"></path></g></g></svg> 